<svg viewBox="-12 -12 128 128" xmlns="http://www.w3.org/2000/svg">
    <!-- Ears -->
    <circle cx="26" cy="30" r="10" fill="#F8F4EC"/>
    <circle cx="26" cy="30" r="5" fill="#F4A7A3" opacity="0.5"/>
    <circle cx="78" cy="30" r="10" fill="#F8F4EC"/>
    <circle cx="78" cy="30" r="5" fill="#F4A7A3" opacity="0.5"/>
    <!-- Head (big round) -->
    <circle cx="52" cy="56" r="34" fill="#F8F4EC"/>
    <!-- Subtle shadow for volume -->
    <ellipse cx="52" cy="76" rx="30" ry="8" fill="#D9D5C7" opacity="0.35"/>
    <!-- Muzzle -->
    <ellipse cx="52" cy="66" rx="18" ry="12" fill="#F8F4EC"/>
    <ellipse cx="52" cy="68" rx="18" ry="10" fill="#D9D5C7" opacity="0.15"/>
    <!-- Cold-cheek blush -->
    <circle cx="26" cy="62" r="6" fill="#A8C5DC" opacity="0.45"/>
    <circle cx="78" cy="62" r="6" fill="#A8C5DC" opacity="0.45"/>
    <!-- Eyes (small, calm) -->
    <circle cx="40" cy="52" r="3.5" fill="#2C2138"/>
    <circle cx="64" cy="52" r="3.5" fill="#2C2138"/>
    <circle cx="41" cy="51" r="1.2" fill="#fff"/>
    <circle cx="65" cy="51" r="1.2" fill="#fff"/>
    <!-- Nose (big black) -->
    <ellipse cx="52" cy="62" rx="5" ry="4" fill="#2C2138"/>
    <!-- Mouth -->
    <path d="M52 66 L52 70" stroke="#2C2138" stroke-width="2" stroke-linecap="round"/>
    <path d="M52 70 Q48 74 45 72" stroke="#2C2138" stroke-width="2.2" fill="none" stroke-linecap="round"/>
    <path d="M52 70 Q56 74 59 72" stroke="#2C2138" stroke-width="2.2" fill="none" stroke-linecap="round"/>
    <!-- Snow fleck on ear -->
    <circle cx="22" cy="26" r="1.5" fill="#A8C5DC"/>
    <circle cx="82" cy="24" r="1" fill="#A8C5DC"/>
  </svg>