<svg viewBox="-12 -12 128 128" xmlns="http://www.w3.org/2000/svg">
    <circle cx="92.0" cy="54.0" r="13" fill="#C97F2E"/><circle cx="90.7" cy="72.7" r="13" fill="#C97F2E"/><circle cx="80.7" cy="90.0" r="13" fill="#C97F2E"/><circle cx="60.9" cy="93.0" r="13" fill="#C97F2E"/><circle cx="42.4" cy="95.9" r="13" fill="#C97F2E"/><circle cx="23.3" cy="90.0" r="13" fill="#C97F2E"/><circle cx="16.0" cy="71.4" r="13" fill="#C97F2E"/><circle cx="9.0" cy="54.0" r="13" fill="#C97F2E"/><circle cx="10.6" cy="34.0" r="13" fill="#C97F2E"/><circle cx="27.1" cy="22.7" r="13" fill="#C97F2E"/><circle cx="42.4" cy="12.1" r="13" fill="#C97F2E"/><circle cx="62.2" cy="9.2" r="13" fill="#C97F2E"/><circle cx="76.9" cy="22.7" r="13" fill="#C97F2E"/><circle cx="90.7" cy="35.3" r="13" fill="#C97F2E"/><circle cx="87.1" cy="61.9" r="13" fill="#E8A04A"/><circle cx="80.2" cy="76.3" r="13" fill="#E8A04A"/><circle cx="67.8" cy="86.4" r="13" fill="#E8A04A"/><circle cx="52.2" cy="90.0" r="13" fill="#E8A04A"/><circle cx="36.5" cy="86.5" r="13" fill="#E8A04A"/><circle cx="24.0" cy="76.6" r="13" fill="#E8A04A"/><circle cx="16.9" cy="62.2" r="13" fill="#E8A04A"/><circle cx="16.9" cy="46.1" r="13" fill="#E8A04A"/><circle cx="23.8" cy="31.7" r="13" fill="#E8A04A"/><circle cx="36.2" cy="21.6" r="13" fill="#E8A04A"/><circle cx="51.8" cy="18.0" r="13" fill="#E8A04A"/><circle cx="67.5" cy="21.5" r="13" fill="#E8A04A"/><circle cx="80.0" cy="31.4" r="13" fill="#E8A04A"/><circle cx="87.1" cy="45.8" r="13" fill="#E8A04A"/>
    <circle cx="26" cy="34" r="8" fill="#C97F2E"/>
    <circle cx="26" cy="34" r="5" fill="#D48BA1"/>
    <circle cx="78" cy="34" r="8" fill="#C97F2E"/>
    <circle cx="78" cy="34" r="5" fill="#D48BA1"/>
    <ellipse cx="52" cy="58" rx="26" ry="24" fill="#F9DDB0"/>
    <circle cx="34" cy="64" r="5" fill="#F4A7A3" opacity="0.55"/>
    <circle cx="70" cy="64" r="5" fill="#F4A7A3" opacity="0.55"/>
    <ellipse cx="52" cy="68" rx="12" ry="8" fill="#E8C48C" opacity="0.6"/>
    <path d="M48 60 q4 -3 8 0 q-4 5 -8 0 z" fill="#2C2138"/>
    <path d="M36 52 q4 4 8 0" stroke="#2C2138" stroke-width="3" fill="none" stroke-linecap="round"/>
    <path d="M60 52 q4 4 8 0" stroke="#2C2138" stroke-width="3" fill="none" stroke-linecap="round"/>
    <path d="M46 68 q6 5 12 0" stroke="#2C2138" stroke-width="3" fill="none" stroke-linecap="round"/>
  </svg>